<svg xmlns="http://www.w3.org/2000/svg" xmlns:xlink="http://www.w3.org/1999/xlink" viewBox="0,0,256,256" width="48px" height="48px" fill-rule="nonzero"><g fill="#ff0000" fill-rule="nonzero" stroke="none" stroke-width="1" stroke-linecap="butt" stroke-linejoin="miter" stroke-miterlimit="10" stroke-dasharray="" stroke-dashoffset="0" font-family="none" font-weight="none" font-size="none" text-anchor="none" style="mix-blend-mode: normal"><g transform="scale(10.66667,10.66667)"><path d="M17,3h-10c-2.2,0 -4,1.8 -4,4v10c0,2.2 1.8,4 4,4h10c2.2,0 4,-1.8 4,-4v-10c0,-2.2 -1.8,-4 -4,-4zM16.51,18h-1.5l-3.53,-5.28l-1.48,1.88v2.4c0,0.55 -0.3,1 -0.67,1h-0.66c-0.37,0 -0.67,-0.45 -0.67,-1v-10c0,-0.55 0.3,-1 0.67,-1h0.66c0.37,0 0.67,0.45 0.67,1v3.83l4,-4.83h1.49l0.51,1l-3.07,3.89l4.08,6.11z"></path></g></g></svg>