<svg version="1.2" xmlns="http://www.w3.org/2000/svg" viewBox="0 0 48 48" width="48" height="48">
	<title>mongodb</title>
	<style>
		.s0 { fill: #94795d } 
		.s1 { fill: #50382b } 
		.s2 { fill: #4f382b } 
		.s3 { fill: #4f372b } 
		.s4 { fill: #439934 } 
		.s5 { fill: #45a538 } 
		.s6 { fill: #46a037 } 
		.s7 { fill: #409433 } 
		.s8 { fill: #4faa41 } 
		.s9 { fill: #4aa73c } 
		.s10 { fill: #57ae47 } 
		.s11 { fill: #60b24f } 
		.s12 { fill: #a9aa88 } 
		.s13 { fill: #b6b598 } 
		.s14 { fill: #c2c1a7 } 
		.s15 { fill: #cecdb7 } 
		.s16 { fill: #dbdac7 } 
		.s17 { fill: #ebe9dc } 
	</style>
	<g>
		<path fill-rule="evenodd" class="s0" d="m32.7 37.6q0.1-0.2 0.2-0.4 0-0.1 0.2-0.1 0.6 0 1.2 0.1 0.6 0 1.1-0.1 0.6 0 1.2 0 0.9 0 1.6 0.4 0.9 0.4 1.3 1.3 0.3 0.6 0.4 1.2 0.1 0.9-0.2 1.8-0.4 1-1.3 1.6-0.7 0.5-1.6 0.6c-0.6 0.1-1.2 0.1-1.8 0.1q-1 0-2 0c-0.1 0-0.1 0-0.1-0.1l0.1-0.1c0-0.2 0.1-0.3 0.3-0.3q0.2 0 0.4-0.1c0-0.1 0.1-0.2 0.1-0.3q0-0.1 0-0.3 0-1.9 0.1-3.8 0-0.5-0.1-1 0-0.3-0.4-0.4-0.3-0.1-0.6-0.1zm6 3.1q0-0.4-0.1-0.8-0.1-0.9-0.8-1.5c-0.8-0.7-1.7-0.8-2.6-0.7-0.2 0-0.3 0.1-0.3 0.3q0 0.5 0 0.9 0 1.5 0 3 0 0.5 0 0.9c0 0.3 0.1 0.5 0.4 0.6 0.5 0.2 0.9 0.2 1.4 0.2 0.8-0.1 1.3-0.6 1.6-1.2 0.3-0.6 0.4-1.1 0.4-1.7zm1.8 3.4q0-0.2 0.2-0.4c0 0 0.1 0 0.1-0.1h0.5q0.2-0.1 0.2-0.3 0-0.2 0-0.3 0.1-1.2 0.1-2.4 0-1.2 0-2.3v-0.2q-0.1-0.4-0.4-0.4l-0.6-0.1q-0.1 0 0-0.1 0-0.2 0.1-0.3c0 0 0.1 0 0.1 0q0.4 0 0.8 0h2.3q0.6 0 1.2 0.3 0.7 0.3 0.8 1 0.1 0.8-0.5 1.3c-0.1 0.1-0.3 0.2-0.5 0.3l-0.1 0.1q0.3 0.1 0.5 0.2c0.5 0.1 0.8 0.4 1 0.9q0.2 0.5 0.1 1.1c-0.2 0.6-0.6 1-1.1 1.2q-0.7 0.5-1.5 0.5-0.7 0-1.5 0h-0.3q-0.7 0-1.4 0zm2.1-2.3q0 0.4 0 0.8 0 0.2 0 0.4c0.1 0.3 0.2 0.5 0.4 0.5q0.5 0.2 1.1 0.1c0.4-0.1 0.8-0.3 1-0.7q0.2-0.5 0.1-1-0.1-0.7-0.7-1-0.4-0.2-0.8-0.2-0.5 0-1-0.1c-0.1 0-0.1 0.1-0.1 0.2q0 0.5 0 1zm0.7-1.7q0.2 0 0.6 0 0.5 0 0.8-0.6c0-0.2 0-0.4 0-0.6 0-0.5-0.3-0.9-0.7-1.1-0.4-0.1-0.8-0.1-1.2-0.1q-0.2 0-0.2 0.2v2.1q-0.1 0.1 0.1 0.1z"/>
		<path fill-rule="evenodd" class="s1" d="m4 43.7l-0.1 0.3q-0.4 0-0.7 0-0.7 0-1.3 0h-0.1c0 0-0.1 0-0.2 0q0-0.1 0-0.3 0.1 0 0.1 0l0.4-0.1c0.2-0.1 0.2-0.2 0.3-0.4q0-0.4 0-0.7 0-1 0-1.9 0-0.2-0.2-0.3-0.2-0.1-0.5-0.2c-0.1 0-0.2 0-0.2-0.2 0.1-0.1 0.2-0.1 0.2-0.1q0.6-0.1 1.2-0.3 0.1 0 0.4-0.1 0 0.1 0 0.2l-0.1 0.4q0.1 0.1 0.1 0.1c0 0 0.1 0 0.1 0q0.5-0.4 1.1-0.6c0.6-0.2 1.1 0 1.4 0.5 0.2 0.2 0.2 0.2 0.3 0q0.5-0.3 1-0.5c0.8-0.3 1.5 0.1 1.8 0.9q0.1 0.4 0.1 0.8v2q0 0.3 0.2 0.3 0.3 0.1 0.6 0.2l-0.1 0.3q-0.3 0-0.6 0-0.8 0-1.5 0-0.1 0.1-0.1-0.1c0-0.2 0-0.2 0.2-0.3h0.1c0.2-0.1 0.3-0.1 0.3-0.4q0-1 0-2.1c0-0.7-0.6-1.1-1.3-0.9q-0.4 0.1-0.7 0.3 0 0 0 0.2 0 0.4 0 0.9 0 0.8 0 1.6c0 0.2 0.1 0.3 0.3 0.4l0.3 0.1h0.1q0 0.1 0 0.3c0 0-0.1 0-0.1 0q-0.5 0-1 0-0.5 0-1.1 0h-0.1q0-0.1 0-0.3c0 0 0 0 0.1 0l0.3-0.1q0.3-0.1 0.3-0.3c0-0.8 0.1-1.5 0-2.3q0-0.2-0.1-0.4c-0.2-0.4-0.7-0.6-1.2-0.5q-0.3 0.1-0.6 0.3-0.2 0.1-0.2 0.3 0 1.1 0.1 2.2v0.3q0 0.3 0.2 0.4 0.2 0 0.5 0.1z"/>
		<path fill-rule="evenodd" class="s2" d="m26.6 39.5c0.1 0.3 0.1 0.5-0.1 0.7-0.2 0.2-0.5 0.1-0.7 0.1q0 0.2 0 0.4 0.1 1.3-1.1 1.8-0.4 0.2-0.9 0.2c-0.2 0-0.3 0.2-0.3 0.3 0 0.1 0 0.3 0.2 0.3q0.3 0.1 0.6 0.1c0.5 0.1 0.9 0.1 1.4 0.2 0.6 0.1 1 0.6 0.9 1.3-0.1 0.6-0.5 1-1 1.4q-1.2 0.8-2.6 0.4c-0.5-0.2-0.9-0.5-1-1.1q-0.1-0.4 0.2-0.7 0.4-0.4 0.8-0.7l0.1-0.1h-0.1c-0.3-0.2-0.5-0.3-0.6-0.6q0-0.2 0.1-0.3 0.2-0.1 0.5-0.3 0.1 0 0.2-0.1 0.1-0.1-0.1-0.1-0.3-0.2-0.6-0.5c-0.3-0.3-0.4-0.7-0.3-1.1 0-0.7 0.4-1.1 0.9-1.4q1.1-0.5 2.1-0.1 0.4 0.2 0.9 0.1 0.3 0 0.5-0.2zm-2.5 4.7c-0.6 0-0.7 0.1-1 0.4-0.4 0.4-0.4 0.8 0 1.2q0.4 0.4 0.9 0.4c0.4 0.1 0.9 0.1 1.2-0.2 0.4-0.2 0.6-0.6 0.6-1-0.1-0.4-0.4-0.5-0.7-0.6-0.3-0.1-0.7-0.2-1-0.2zm-1.1-3.3q0.1 0.2 0.1 0.4c0.1 0.4 0.2 0.7 0.6 0.9 0.4 0.2 1 0.1 1.2-0.5q0.2-0.6-0.1-1.2-0.1-0.3-0.3-0.5c-0.4-0.2-1.1-0.3-1.3 0.3q-0.2 0.3-0.2 0.6z"/>
		<path fill-rule="evenodd" class="s3" d="m17.8 39.4q0 0.1 0 0.2 0 0.2 0 0.4v0.1l0.1-0.1c0.3-0.2 0.7-0.4 1.1-0.6 0.7-0.2 1.4 0.2 1.7 1q0.1 0.4 0.1 0.8 0 1 0 2c0 0.2 0 0.3 0.3 0.3q0.1 0.1 0.3 0.1 0.2 0 0.1 0.1v0.1c0 0.3 0 0.3-0.2 0.3q-1 0-1.9 0c-0.2 0-0.2 0-0.2-0.2v-0.1c0-0.2 0-0.2 0.1-0.2q0.2 0 0.3-0.1 0.2 0 0.2-0.2 0 0 0-0.1c0-0.7 0-1.5 0-2.2 0-0.5-0.5-0.9-1.1-0.9q-0.4 0.1-0.7 0.3c-0.2 0.1-0.2 0.3-0.2 0.5q0 1 0 2 0 0.2 0 0.4c0 0.2 0.1 0.2 0.2 0.3q0.3 0 0.5 0v0.2c0 0.3 0 0.3-0.3 0.3q-1 0-1.9 0-0.2 0-0.2-0.1v-0.1c0-0.2 0-0.3 0.3-0.3h0.1c0.2-0.1 0.3-0.2 0.3-0.4q0-1.3 0-2.6 0-0.2-0.1-0.2-0.3-0.2-0.5-0.3c-0.1 0-0.2 0-0.2-0.1 0-0.1 0.1-0.2 0.2-0.2q0.4-0.1 0.8-0.2 0.4-0.1 0.8-0.2z"/>
		<path fill-rule="evenodd" class="s2" d="m31.8 41.6c0 0.8-0.2 1.5-0.8 1.9-0.7 0.6-1.8 0.9-2.7 0.4q-0.6-0.3-0.8-0.9-0.5-0.9-0.3-1.9 0.3-0.9 1.2-1.4c0.5-0.3 1.2-0.4 1.8-0.2 0.9 0.2 1.5 0.9 1.6 1.7 0 0.2 0 0.3 0 0.4zm-0.9 0.4h-0.1q0-0.1 0-0.2c0-0.5-0.1-0.9-0.4-1.3q-0.4-0.6-1-0.6c-0.5 0-1 0.2-1.1 0.8q-0.4 1.1 0.2 2.2 0.3 0.5 0.8 0.7c0.7 0.2 1.3-0.1 1.4-0.8 0.1-0.2 0.1-0.5 0.2-0.8z"/>
		<path fill-rule="evenodd" class="s3" d="m15.3 41.7c0 0.5-0.1 1.1-0.5 1.5-0.4 0.5-0.9 0.8-1.5 0.9-0.7 0.1-1.3 0-1.9-0.5q-0.4-0.3-0.6-0.8-0.3-0.8-0.1-1.6 0.2-0.9 1-1.4c0.6-0.3 1.3-0.5 1.9-0.3 0.9 0.2 1.5 0.8 1.6 1.6q0.1 0.3 0.1 0.6zm-1 0.4v-0.1-0.1c0-0.5-0.1-1-0.4-1.4q-0.4-0.5-1-0.6c-0.6-0.1-1 0.3-1.2 0.8q-0.2 1 0.2 2c0.2 0.4 0.4 0.7 0.9 0.9 0.6 0.2 1.2-0.1 1.4-0.8 0.1-0.2 0.1-0.5 0.1-0.7z"/>
		<path fill-rule="evenodd" class="s4" d="m30.9 12.6c0.4 1.3 0.8 2.7 0.9 4.1 0.1 1.7 0.1 3.5-0.3 5.2l-0.1 0.1q-0.1 0-0.3 0-1.4 0.2-2.9 0.5-1.4 0.2-2.9 0.5c-0.4 0-0.8-0.1-0.9 0.4h-0.1v-2.8-7l0.5-0.1q1.1-0.1 2.2-0.3 1.4-0.2 2.7-0.4 0.6-0.1 1.2-0.2z"/>
		<path fill-rule="evenodd" class="s5" d="m23.3 31.8c-0.4-0.4-0.9-0.8-1.4-1.2-2.5-2.4-4.3-5.1-5.2-8.5q-0.4-1.4-0.5-2.8c0-0.7-0.1-1.3 0-2 0.1-1.7 0.3-3.5 0.9-5.2 0 0 0.1 0.1 0.1 0.2q0.8 2.2 1.5 4.4 2.4 7 4.7 14c0.1 0.1 0.1 0.2 0.2 0.3z"/>
		<path fill-rule="evenodd" class="s6" d="m30.9 12.6q-0.6 0.1-1.2 0.2-1.3 0.2-2.7 0.4-1.1 0.2-2.2 0.3l-0.5 0.1v-0.3q0-0.3-0.1-0.7v-4.7q0-1.5-0.1-3 0-0.9 0-1.8c0-0.3-0.1-0.7-0.1-1q0-0.3 0-0.5 0.4 0.6 0.7 1.3c0.4 0.7 1 1.2 1.5 1.8q3.3 3.4 4.7 7.9z"/>
		<path fill-rule="evenodd" class="s7" d="m24.3 23.4h0.1c0.1-0.5 0.5-0.4 0.9-0.4q1.5-0.3 2.9-0.5 1.5-0.3 2.9-0.5 0.2 0 0.3 0c-0.1 0.6-0.3 1.3-0.5 1.9q-0.4 1.1-0.9 2.1-0.7 1.5-1.8 2.8c-0.6 0.6-1.2 1.2-1.8 1.8-0.3 0.4-0.7 0.6-1.1 0.9h-0.1l-0.4-0.3-0.3-0.8q-0.4-1.4-0.4-2.8v-0.2-0.7q0.1-0.3 0.1-0.7 0-1.3 0.1-2.6z"/>
		<path fill-rule="evenodd" class="s8" d="m24.3 23.4q-0.1 1.3-0.1 2.6 0 0.4-0.1 0.7l-0.2 0.1q-0.7-2.1-1.4-4.3-1.2-3.5-2.4-7-0.9-2.9-1.9-5.7c0-0.1-0.1-0.2-0.2-0.3l1.4-2.5q0.1 0.1 0.2 0.2 0.9 2.9 1.9 5.8 1.3 3.7 2.5 7.5 0.1 0.1 0.2 0.3l0.1-0.2q0 1.4 0 2.8z"/>
		<path fill-rule="evenodd" class="s9" d="m18 9.5c0.1 0.1 0.2 0.2 0.2 0.3q1 2.8 1.9 5.7 1.2 3.5 2.4 7 0.7 2.2 1.4 4.3l0.2-0.1v0.7 0.2q-0.2 1.1-0.3 2.3c0 0.3-0.1 0.7-0.2 1.1-0.1-0.1-0.1-0.2-0.2-0.3q-2.3-7-4.7-14-0.7-2.2-1.5-4.4c0-0.1-0.1-0.2-0.1-0.2z"/>
		<path fill-rule="evenodd" class="s10" d="m24.3 20.6l-0.1 0.2q-0.1-0.2-0.2-0.3-1.2-3.8-2.5-7.5-1-2.9-1.9-5.8-0.1-0.1-0.2-0.2l1.8-2.3c0 0.1 0.1 0.1 0.1 0.2q0.7 2.1 1.5 4.2 0.6 2 1.3 4c0 0.1 0.1 0.1 0.2 0.2v0.3z"/>
		<path fill-rule="evenodd" class="s11" d="m24.3 13.3c-0.1-0.1-0.2-0.1-0.2-0.2q-0.7-2-1.3-4-0.8-2.1-1.5-4.2c0-0.1-0.1-0.1-0.1-0.2 0.5-0.6 1.1-1.1 1.7-1.7 0.5-0.4 0.9-0.9 0.9-1.7l0.1-0.1 0.1 0.4q0 0.2 0 0.5c0 0.3 0.1 0.7 0.1 1q0 0.9 0 1.8 0.1 1.5 0.1 3v4.7q0.1 0.4 0.1 0.7z"/>
		<path fill-rule="evenodd" class="s12" d="m23.6 31c0.1-0.4 0.2-0.8 0.2-1.1q0.1-1.2 0.3-2.3 0 1.4 0.4 2.8c-0.1 0.1-0.1 0.1-0.2 0.2q-0.3 0.9-0.6 1.8c0 0-0.1 0.1-0.1 0.2l-0.3-0.8z"/>
		<path fill-rule="evenodd" class="s13" d="m23.6 32.6c0-0.1 0.1-0.2 0.1-0.2q0.3-0.9 0.6-1.8c0.1-0.1 0.1-0.1 0.2-0.2l0.3 0.8c0 0.1-0.1 0.2-0.2 0.3l-0.6 2c-0.1 0.1-0.2 0.1-0.2 0.2z"/>
		<path fill-rule="evenodd" class="s14" d="m23.8 33.7c0-0.1 0.1-0.1 0.2-0.2l0.6-2c0.1-0.1 0.2-0.2 0.2-0.3l0.4 0.3c-0.2 0.1-0.3 0.3-0.2 0.6l-0.1 0.3c-0.1 0.1-0.1 0.1-0.2 0.2q-0.3 1-0.7 2.1c0 0.1-0.1 0.1-0.1 0.2z"/>
		<path fill-rule="evenodd" class="s15" d="m23.9 34.9c0-0.1 0.1-0.1 0.1-0.2q0.4-1.1 0.7-2.1c0.1-0.1 0.1-0.1 0.2-0.2l-0.2 1.6q0 0.1-0.1 0.2l-0.5 1.3q0 0.2-0.1 0.3c-0.1 0-0.1-0.1-0.1-0.2q-0.1-0.3 0-0.7z"/>
		<path fill-rule="evenodd" class="s16" d="m24 35.8q0.1-0.1 0.1-0.3l0.5-1.3q0.1-0.1 0.1-0.2v1.1l-0.3 0.9z"/>
		<path fill-rule="evenodd" class="s17" d="m24.4 36l0.3-0.9 0.1 1z"/>
		<path fill-rule="evenodd" class="s15" d="m25 32.1c-0.1-0.3 0-0.5 0.2-0.6h0.1z"/>
		<path fill-rule="evenodd" class="s8" d="m24.1 27.6v-0.2z"/>
	</g>
</svg>