<svg version="1.2" xmlns="http://www.w3.org/2000/svg" viewBox="0 0 48 48" width="48" height="48">
	<title>OpenCV</title>
	<style>
		.s0 { fill: #128dff } 
		.s1 { fill: #8bda67 } 
		.s2 { fill: #ff2a44 } 
	</style>
	<path class="s0" d="m42.3 25c3.4 2 5.7 5.6 5.7 9.8 0 6.3-5.1 11.4-11.5 11.4-6.3 0-11.4-5.1-11.4-11.4 0-4.1 2.2-7.8 5.6-9.8l3.3 5.5c0.1 0.2 0 0.4-0.1 0.4-1.3 0.9-2.1 2.3-2.1 3.9 0 2.6 2.1 4.7 4.7 4.7 2.6 0 4.7-2.1 4.7-4.7 0-1.6-0.8-3-2-3.9-0.2-0.1-0.2-0.2-0.1-0.4z"/>
	<path class="s1" d="m17.1 24.9q-0.7-0.3-1.4-0.6-0.6-0.3-1.3-0.5-0.8-0.2-1.5-0.3-0.7 0-1.4 0c-6.4 0-11.5 5.1-11.5 11.4 0 6.3 5.1 11.4 11.5 11.4 6.3 0 11.6-5.4 11.4-11.7h-6.4c-0.2 0-0.3 0.1-0.3 0.3-0.1 2.5-2.2 4.7-4.7 4.7-2.6 0-4.7-2.1-4.7-4.7 0-2.6 2.1-4.7 4.7-4.7q1 0 1.9 0.4c0.1 0.1 0.3 0 0.4-0.1z"/>
	<path class="s2" d="m18 23.1c-3.4-2-5.7-5.6-5.7-9.8 0-6.3 5.2-11.4 11.5-11.4 6.3 0 11.4 5.1 11.4 11.4 0 4.2-2.2 7.8-5.6 9.8l-3.3-5.5c-0.1-0.2 0-0.3 0.1-0.4 1.3-0.9 2.1-2.3 2.1-3.9 0-2.6-2.1-4.7-4.7-4.7-2.6 0-4.7 2.1-4.7 4.7 0 1.6 0.8 3 2.1 3.9 0.1 0.1 0.1 0.2 0.1 0.4z"/>
</svg>