<svg version="1.2" xmlns="http://www.w3.org/2000/svg" viewBox="0 0 48 48" width="48" height="48">
	<title>scikit-learn</title>
	<style>
		.s0 { fill: #f89939 } 
		.s1 { fill: #3499cd } 
		.s2 { fill: #010101 } 
		.s3 { fill: #ffffff } 
	</style>
	<path class="s0" d="m36.8 33c5.9-5.8 6.9-14.3 2.2-19-4.7-4.7-13.2-3.7-19.1 2.2-5.8 5.8-4.1 17-2.1 19 1.6 1.6 13.2 3.7 19-2.2z"/>
	<path class="s1" d="m12.8 24.6c-3.4-3.4-8.4-4-11.1-1.3-2.7 2.7-2.1 7.7 1.3 11.1 3.4 3.4 9.9 2.4 11 1.2 1-0.9 2.2-7.6-1.2-11z"/>
	<path class="s2" d="m46.4 32.1q-0.3 0-0.3-0.4 0-0.3 0.4-1.3 0.6-1.4 0.6-2.1 0-0.3-0.3-0.6-0.2-0.2-0.5-0.2-0.5-0.1-1.2 0.4-0.6 0.5-1.7 1.7 0.2-0.8 0.7-2.2l-1.6 0.3q-0.6 1.2-0.8 2.2-0.2 0.5-0.2 1-0.8 0.7-1 0.9-0.2 0.1-0.4 0.1-0.3 0-0.4-0.2-0.1-0.1-0.1-0.4 0-0.3 0.1-0.7 0.1-0.4 0.5-1.4l0.6-1.7h-0.6q-0.8 1.6-1.9 1.7 0.3-0.8 0.3-1.2 0-0.6-0.5-0.6-0.7 0-1 0.6-0.3 0.6-0.3 1.1 0 0.5 0.5 0.8-0.4 0.5-0.8 1-0.5 0.5-0.8 0.8-0.4 0.3-0.6 0.3-0.4 0-0.4-0.6 0-0.6 0.4-2l0.6-2h-0.4l-1.3 0.8q-0.3-0.8-1.2-0.8-0.6 0-1.5 0.6-0.8 0.6-1.4 1.5-0.4 0.7-0.5 1.4-0.8 0.8-1.1 1-0.4 0.2-0.9 0.2-1.1 0-1.4-1.3 3-0.8 3-2.2 0-0.5-0.4-0.8-0.4-0.3-1-0.3-1.2 0-2.2 1.1-0.8 1-0.9 2.3-0.8 0.8-1.2 1-0.4 0.3-0.8 0.3-0.3 0-0.6-0.3-0.2-0.4-0.2-1 0-0.2 0.1-0.9 1.3-1.5 1.9-2.7 0.7-1.3 0.7-2.6 0-0.5-0.2-0.8-0.1-0.3-0.3-0.3 0 0-0.1 0.1l-1.7 0.6q-0.8 1.6-1.5 3.6-0.6 1.9-0.6 3.3 0 0.9 0.5 1.5 0.4 0.5 1.1 0.5 0.6 0 1.3-0.4 0.7-0.4 1.6-1.2c0.6-0.5 0 0 0 0q0.1 0.6 0.5 1.1 0.6 0.5 1.5 0.5 0.8 0 1.4-0.4 0.7-0.3 1.5-1.1 0.1 0.6 0.4 1 0.4 0.5 1 0.5 0.6 0 1.1-0.4 0.6-0.5 1.3-1.4-0.1 1.8 0.9 1.8 0.5 0 0.9-0.3 0.5-0.3 1.5-1.3 1-0.9 1.4-1.7 0.6-0.1 1.1-0.3-1 1.5-1 2.5 0 0.5 0.2 0.8 0.3 0.4 0.7 0.4 0.9 0 2.5-1.6 0 0.1 0 0.2 0 0.5 0.1 1.4l1.5-0.4q0-0.6 0-0.9 0-0.5 0.1-1.1 0.1-0.3 0.3-0.6l0.4-0.4q0.2-0.3 0.4-0.5 0.2-0.2 0.3-0.3 0.2-0.2 0.4-0.3 0.1-0.1 0.2-0.1 0.2 0 0.2 0.2 0 0.2-0.3 1-0.6 1.5-0.6 2.2 0 0.5 0.3 0.8 0.2 0.3 0.7 0.3 1.1 0 2.6-1.6v-0.7q-1.1 1.2-1.6 1.2zm-24.4-3.1q0.4-2.2 0.9-3.4 0.4-1.2 0.7-1.2 0.1 0 0.2 0.1 0 0.2 0 0.4 0 0.9-0.5 2-0.5 1.2-1.3 2.1zm4.4-0.3q0.4-0.7 0.8-0.7 0.5 0 0.5 0.6 0 1.3-1.7 1.8 0-1.1 0.4-1.7zm6.5 2.2q-0.6 1.1-1.2 1.1-0.3 0-0.5-0.2-0.1-0.3-0.1-0.6 0-1 0.5-2.1 0.6-1.1 1.3-1.1 0.3 0 0.4 0.2 0.2 0.2 0.2 0.6 0 0.9-0.6 2.1z"/>
	<path class="s3" d="m28.3 24.3q0.1 0.1 0.1 0.3 0 0.2-0.1 0.4-0.1 0.1-0.3 0.2-0.2 0.1-0.5 0.1-0.4 0-0.6-0.2-0.2-0.2-0.2-0.5h0.3q0 0.2 0.2 0.3 0.1 0.1 0.3 0.1 0.3 0 0.4-0.1 0.1-0.1 0.1-0.2 0-0.2-0.1-0.2-0.1-0.1-0.3-0.1-0.4-0.1-0.6-0.2-0.1-0.1-0.2-0.2-0.1-0.1-0.1-0.3 0-0.1 0.1-0.2 0-0.2 0.2-0.2 0-0.1 0.2-0.1 0.1-0.1 0.3-0.1 0.2 0 0.4 0.1 0.2 0.1 0.3 0.2 0.1 0.1 0.1 0.3h-0.3q-0.1-0.1-0.2-0.2-0.1-0.1-0.3-0.1-0.2 0-0.3 0.1-0.1 0.1-0.1 0.2 0 0 0 0.1 0 0.1 0.1 0.1 0.1 0 0.3 0.1 0.4 0.1 0.6 0.1 0.1 0.1 0.2 0.2zm1.7 0.6q-0.2 0.1-0.4 0.1-0.2 0-0.4-0.2-0.2-0.2-0.2-0.6 0-0.4 0.2-0.6 0.2-0.2 0.4-0.2 0.2 0 0.3 0.1 0.2 0.1 0.2 0.3h0.4q-0.1-0.3-0.3-0.5-0.2-0.2-0.6-0.2-0.2 0-0.5 0.1-0.2 0.2-0.3 0.4-0.1 0.3-0.1 0.6 0 0.5 0.2 0.8 0.3 0.3 0.7 0.3 0.4 0 0.6-0.2 0.2-0.2 0.3-0.6h-0.4q0 0.2-0.1 0.4zm0.8 0.3h0.3v-2h-0.3zm0-2.5h0.3v-0.4h-0.3zm2.5 0.4h-0.4l-0.9 0.8v-1.6h-0.3v2.9h0.3v-0.9l0.3-0.2 0.7 1.1h0.4l-0.9-1.3zm0.4-0.4h0.3v-0.4h-0.3zm0 2.4h0.3v-2h-0.3zm1.6-0.4q-0.1 0.1-0.1 0.1-0.1 0-0.1-0.1-0.1 0-0.1 0 0-0.1 0-0.2v-1.2h0.3v-0.3h-0.3v-0.7l-0.4 0.2v0.5h-0.2v0.3h0.2v1.2q0 0.3 0.1 0.4 0 0.1 0.1 0.1 0.1 0.1 0.3 0.1 0.1 0 0.3 0c0 0-0.1-0.4-0.1-0.4z"/>
</svg>